<svg xmlns="http://www.w3.org/2000/svg" xmlns:xlink="http://www.w3.org/1999/xlink" id="Layer_1" x="0" y="0" enable-background="new 0 0 82.7 82.7" version="1.1" viewBox="0 0 82.7 82.7" xml:space="preserve"><rect width="82.7" height="82.7" fill="#00B2EF"/><path fill="#FFF" d="M43.6,22.3c-8.4,0-15.5,6-17.6,14.1l-5.2,8l5.1,1.2c0.4,1.8,1,3.6,1.9,5.2h16.8c-0.9,5.6-8.9,7.7-8.9,7.7	c2.4,1.2,5.1,1.9,7.9,1.9c10.1,0,18.2-8.5,18.2-19C61.8,30.8,53.7,22.3,43.6,22.3 M36.1,40.1c-1.5,0-2.6-1.2-2.6-2.6	c0-1.4,1.2-2.6,2.6-2.6c1.4,0,2.6,1.2,2.6,2.6C38.7,38.9,37.5,40.1,36.1,40.1"/></svg>